# xmcd
#
# Track frame offsets:
#	150
#	36795
#	66187
#	87420
#	104230
#	127803
#	158804
#	174447
#	194329
#	222875
#
# Disc length: 3214
#
# Revision: 2
# Processed by: cddbd v1.5.1PL0 Copyright (c) Steve Scherf et al.
# Submitted via: ExactAudioCopy v0.90b4
# Normalized: r0:TDELIM( - );r1:TRMNUM
#
DISCID=8a0c8c0a
DTITLE=Grzegorz Kapo³ka Trio - Blue Blues
DYEAR=1999
DGENRE=Blues
TTITLE0=Blue blues
TTITLE1=Fix fax
TTITLE2=Funny town
TTITLE3=For Steve Ray
TTITLE4=New in G
TTITLE5=Zucchero
TTITLE6=For John Lee
TTITLE7=Ach, te Saloniki
TTITLE8=Beautiful night blues
TTITLE9=Warsaw song (old song)
EXTD=
EXTT0=
EXTT1=
EXTT2=
EXTT3=
EXTT4=
EXTT5=
EXTT6=
EXTT7=
EXTT8=
EXTT9=
PLAYORDER=
